<svg id="Layer_1" data-name="Layer 1" xmlns="http://www.w3.org/2000/svg" viewBox="0 0 411.37847 475.22907"><defs><style>.cls-1{fill:#fff;}</style></defs><title>Stove_labs</title><path class="cls-1" d="M399.21521,337.17137v.00029l-69.04748-40.463V213.59609a11.025,11.025,0,0,0-5.39243-9.45143l-84.463-49.92342c7.01394-13.547,9.84727-29.46975-12.95459-52.06635a4.33365,4.33365,0,0,0-6.771,5.30045c8.93114,14.95276,6.69935,25.80971,1.28181,35.86437l-6.22788-3.681L215.503,86.77411a10.92016,10.92016,0,0,0,.38824-2.97893l-.56486-66.45255a10.97948,10.97948,0,0,0-16.5723-9.35352L11.36318,118.93485a10.99857,10.99857,0,0,0-5.3834,9.64188l.01863,1.01855c-.01355.20146-.022.40348-.02032.60606L7.671,346.31469a10.70342,10.70342,0,0,0,.18961,1.88419,11.04123,11.04123,0,0,0,5.31455,7.91738l158.50335,92.88539v10.73379a9.24527,9.24527,0,0,0,13.95621,7.95519l8.921-5.28267,6.08821,3.56777a10.97722,10.97722,0,0,0,11.102.00056L399.21633,356.116a10.979,10.979,0,0,0-.00112-18.94461Z" transform="translate(0.37847 -0.10808)"/><path class="cls-1" d="M180.924,475.33715a15.602,15.602,0,0,1-15.60171-15.60171v-7.09153L9.96147,361.60039a17.4822,17.4822,0,0,1-8.37305-12.36518,16.89545,16.89545,0,0,1-.27369-2.86747L-.37816,130.251c-.00169-.24942.00339-.507.01693-.7793l-.01411-.77873a17.36673,17.36673,0,0,1,8.49946-15.22729L195.51556,2.51966a17.33611,17.33611,0,0,1,26.16705,14.768l.56486,66.4534a17.38774,17.38774,0,0,1-.386,3.77995l.01862,7.30483a10.7062,10.7062,0,0,1,9.952,2.81444c23.05269,22.84475,22.121,40.57555,16.66315,54.03433l79.51407,46.99811a17.408,17.408,0,0,1,8.51469,14.92342v79.47033l65.9049,38.62139-.00056-.00056a17.33494,17.33494,0,0,1,.00169,29.91258L214.95957,471.46014a17.333,17.333,0,0,1-17.531-.00141l-2.85591-1.67371-5.69941,3.37478A15.60792,15.60792,0,0,1,180.924,475.33715Zm23.42343-462.5216a4.62118,4.62118,0,0,0-2.35481.643L14.60169,124.40431a4.63054,4.63054,0,0,0-2.26678,4.05871l.0237,1.28773-.01806.27086c-.00282.0426-.00621.08521-.00621.1281l1.69289,216.115a4.38683,4.38683,0,0,0,.08239.77055l.04289.261a4.66132,4.66132,0,0,0,2.23575,3.33556l161.64648,94.72754v14.376a2.89414,2.89414,0,0,0,1.45871,2.51,2.93755,2.93755,0,0,0,2.90218-.0237l12.14313-7.19085,9.31881,5.461a4.69567,4.69567,0,0,0,4.67295.00141L396.00266,350.63185a4.62251,4.62251,0,0,0-.00113-7.97635l-72.19-42.30456V213.59609a4.64263,4.64263,0,0,0-2.27074-3.97971L231.90486,156.6353l2.76281-5.33628c4.54429-8.77737,8.10388-19.26992-3.13242-34.717,3.56862,12.59061-.05587,22.30077-4.07141,29.7526l-3.13693,5.82186L209.294,143.27076l-.14954-57.34366.228-.83262a4.58905,4.58905,0,0,0,.16252-1.24964l-.56486-66.448a4.61871,4.61871,0,0,0-4.62273-4.58125Z" transform="translate(0.37847 -0.10808)"/><path d="M396.44,341.90781l-71.76175-42.05345V213.59609a5.48994,5.48994,0,0,0-2.69621-4.72572l-111.823-66.09478L210.011,85.9132a5.48416,5.48416,0,0,0,.39077-2.07146L209.83687,17.39a5.48974,5.48974,0,0,0-8.28615-4.67718L14.16041,123.65831a5.48836,5.48836,0,0,0-2.6917,4.82107l.02257,1.2725c-.009.13543-.02483.26959-.0237.40657L13.16047,346.271a6.4767,6.4767,0,0,0,2.78989,5.10915L177.168,445.85594v13.8795a3.75565,3.75565,0,0,0,5.6695,3.23174l11.70354-6.93046,8.87922,5.20342a5.48845,5.48845,0,0,0,5.55043,0l187.46988-109.86a5.48949,5.48949,0,0,0-.00056-9.4723ZM184.67991,453.14614V450.258l2.45131,1.43652Z" transform="translate(0.37847 -0.10808)"/><path d="M180.924,468.9809a9.24583,9.24583,0,0,1-9.24546-9.24546V449.00165L13.17514,356.11626a11.04123,11.04123,0,0,1-5.31455-7.91738,10.70342,10.70342,0,0,1-.18961-1.88419L5.97809,130.20134c-.00169-.20258.00677-.4046.02032-.60606l-.01863-1.01855a10.99857,10.99857,0,0,1,5.3834-9.64188L198.75406,7.98911a10.97948,10.97948,0,0,1,16.5723,9.35352l.56486,66.45255a10.92016,10.92016,0,0,1-.38824,2.97893l.13769,52.86455,109.13463,64.506a11.025,11.025,0,0,1,5.39243,9.45143v83.11259l69.04748,40.463v-.00029a10.979,10.979,0,0,1,.00112,18.94461L211.74589,465.97629a10.97722,10.97722,0,0,1-11.102-.00056l-6.08821-3.56777-8.921,5.28267A9.25,9.25,0,0,1,180.924,468.9809Zm17.0226-17.31125,8.24891,4.83434,187.46988-109.86h-.00057L319.18875,303v-89.404L204.6775,145.91252l-.15857-61.04066.3888-.98131-.56035-66.454L16.95707,128.382l.02708,1.50386-.02595.37187,1.6912,215.906c.00338.01891.00677.03753.01072.05643l.06884.42464ZM16.95707,130.11331Z" transform="translate(0.37847 -0.10808)"/><path d="M180.3461,464.06925a3.75614,3.75614,0,0,1-3.756-3.756V403.6544h7.51193V453.724L358.90121,350.2123V337.38581h7.51193v14.96743a3.75545,3.75545,0,0,1-1.84243,3.23174L182.25964,463.545A3.75257,3.75257,0,0,1,180.3461,464.06925Z" transform="translate(0.37847 -0.10808)"/><polygon points="204.148 19.64 204.713 236.33 18.451 346.698 16.757 130.585 204.148 19.64"/><path d="M18.07212,352.2954a5.48963,5.48963,0,0,1-5.48949-5.4466L10.88974,130.73629a5.49,5.49,0,0,1,2.69283-4.76662L200.97288,15.02421a5.48948,5.48948,0,0,1,8.28615,4.70935l.56486,216.69035a5.4891,5.4891,0,0,1-2.69113,4.737L20.87047,351.52852A5.48527,5.48527,0,0,1,18.07212,352.2954Zm3.82143-218.48707,1.593,203.40847L198.837,233.31491l-.53213-203.95217Z" transform="translate(0.37847 -0.10808)"/><polygon class="cls-1" points="205.996 237.254 393.466 347.114 205.996 456.974 18.526 347.114 205.996 237.254"/><path d="M205.61762,462.57132a5.4835,5.4835,0,0,1-2.77522-.75334L15.37252,351.958a5.48921,5.48921,0,0,1,0-9.4723L202.8424,232.6259a5.48847,5.48847,0,0,1,5.55043,0L395.86215,342.48565a5.48949,5.48949,0,0,1,.00056,9.4723L208.39283,461.818A5.48349,5.48349,0,0,1,205.61762,462.57132ZM29.00539,347.2218,205.61762,450.71909,382.22928,347.2218l-176.61166-103.497Z" transform="translate(0.37847 -0.10808)"/><polygon class="cls-1" points="204.148 17.906 204.713 84.358 17.886 192.414 16.757 128.852 204.148 17.906"/><path d="M17.50782,198.01187a5.48875,5.48875,0,0,1-5.48836-5.39214l-1.12859-63.5625a5.48836,5.48836,0,0,1,2.6917-4.82108L200.97288,13.29069a5.48974,5.48974,0,0,1,8.28615,4.67718l.56486,66.45171a5.49057,5.49057,0,0,1-2.74136,4.7985L20.256,197.27434A5.48611,5.48611,0,0,1,17.50782,198.01187Zm4.41676-65.95568.90626,51.04581,175.987-101.78691-.45652-53.71917Z" transform="translate(0.37847 -0.10808)"/><path d="M166.67176,60.90578c-4.59,0-9.4139,5.49457-11.22078,13.13093-1.98548,8.39076.42407,16.18949,5.38143,17.419a5.60019,5.60019,0,0,0,1.35092.16428c4.59,0,9.4139-5.49457,11.2205-13.13093,1.98548-8.39075-.42379-16.18956-5.38142-17.419a5.59806,5.59806,0,0,0-1.35065-.16428Z" transform="translate(0.37847 -0.10808)"/><path d="M133.36211,79.93588c-4.58972,0-9.41362,5.49457-11.2205,13.13093-1.98548,8.39075.42379,16.18952,5.38143,17.419a5.60015,5.60015,0,0,0,1.35092.16425c4.59,0,9.41362-5.4945,11.2205-13.13089,1.98548-8.39076-.42379-16.18957-5.38142-17.419a5.60033,5.60033,0,0,0-1.35093-.16428Z" transform="translate(0.37847 -0.10808)"/><path d="M98.517,100.07708c-4.59,0-9.4139,5.4945-11.22078,13.13089-1.98548,8.39076.42407,16.18953,5.38143,17.419a5.60016,5.60016,0,0,0,1.35093.16424c4.59,0,9.41389-5.49449,11.22049-13.13089,1.98549-8.39076-.42378-16.18953-5.38142-17.419a5.598,5.598,0,0,0-1.35065-.16424Z" transform="translate(0.37847 -0.10808)"/><path d="M65.20735,119.10717c-4.58972,0-9.41362,5.4945-11.2205,13.1309-1.98548,8.39075.42379,16.18952,5.38143,17.419a5.60017,5.60017,0,0,0,1.35093.16425c4.59,0,9.41361-5.4945,11.22049-13.13089,1.98549-8.39076-.42378-16.18953-5.38142-17.419a5.60029,5.60029,0,0,0-1.35093-.16425Z" transform="translate(0.37847 -0.10808)"/><polygon class="cls-1" points="93.238 347.5 93.238 214.066 206.114 147.349 318.989 214.066 318.989 347.5 206.114 414.218 93.238 347.5"/><path d="M205.735,419.81532a5.48494,5.48494,0,0,1-2.79327-.76377L90.0658,352.33434a5.48992,5.48992,0,0,1-2.69622-4.72571V214.17393a5.4899,5.4899,0,0,1,2.69622-4.72571L202.94172,142.731a5.48875,5.48875,0,0,1,5.58654,0l112.87592,66.71721a5.4899,5.4899,0,0,1,2.69622,4.72571v133.4347a5.48992,5.48992,0,0,1-2.69622,4.72571L208.52826,419.05155A5.48494,5.48494,0,0,1,205.735,419.81532ZM98.34856,344.47649,205.735,407.949l107.38643-63.4725V217.30606L205.735,153.83357,98.34856,217.30606Z" transform="translate(0.37847 -0.10808)"/><polyline class="cls-1" points="318.114 216.918 205.782 283.314 93.449 216.918"/><polygon points="205.782 289.691 90.655 221.644 96.242 212.192 205.782 276.938 315.321 212.192 320.907 221.644 205.782 289.691"/><line class="cls-1" x1="205.78152" y1="283.43022" x2="205.78152" y2="416.33892"/><rect x="200.29217" y="283.43018" width="10.97898" height="132.90877"/><path class="cls-1" d="M199.60752,221.35857c-59.87181-73.6713,51.861-84.12958-13.60995-149.01112C225.52821,138.52988,109.5611,150.88735,199.60752,221.35857Z" transform="translate(0.37847 -0.10808)"/><path d="M199.60615,225.69237a4.32159,4.32159,0,0,1-2.66969-.92093c-24.09157-18.85432-35.77874-35.12528-36.7798-51.20551-.90683-14.56594,7.18012-26.55106,15.00129-38.142,11.857-17.57252,23.05721-34.17077,7.11918-60.85416a4.33365,4.33365,0,0,1,6.771-5.30045c15.84435,15.70159,23.02843,29.5297,22.60859,43.51836-.37244,12.4154-6.83252,22.91416-13.08042,33.06757-12.13071,19.71516-23.58878,38.337,4.39419,72.77015a4.33384,4.33384,0,0,1-3.36435,7.067Zm-.904-130.13553c1.64323,18.03693-7.76079,31.97227-16.35956,44.71524-7.33249,10.86753-14.25868,21.1321-13.53525,32.75523.47063,7.55341,4.23449,15.57913,11.40615,24.23066a50.30841,50.30841,0,0,1-3.1042-21.48084c1.1128-13.38147,7.70775-24.09946,14.08544-34.4642,5.911-9.60745,11.49475-18.68193,11.79834-28.78511A34.11994,34.11994,0,0,0,198.70215,95.55684Z" transform="translate(0.37847 -0.10808)"/><path class="cls-1" d="M234.987,222.16125c-46.981-57.80942,40.695-66.016-10.67964-116.92811C255.32676,157.16609,164.32808,166.86292,234.987,222.16125Z" transform="translate(0.37847 -0.10808)"/><path d="M234.98593,226.49509a4.32154,4.32154,0,0,1-2.66969-.92094c-19.13026-14.9711-28.41409-27.9539-29.21765-40.8577-.73133-11.74642,5.70505-21.285,11.92926-30.5096,9.13372-13.53638,17.76127-26.32224,5.55889-46.75151a4.33365,4.33365,0,0,1,6.771-5.30045c28.14153,27.88816,17.23648,45.61135,7.6152,61.248-9.34082,15.18074-18.16362,29.51926,3.37732,56.02517a4.33384,4.33384,0,0,1-3.36434,7.067Zm.3098-98.36642a37.43561,37.43561,0,0,1-.97906,7.11523c-2.12966,9.02877-7.19987,16.5438-12.10362,23.81111-5.66273,8.39224-11.01171,16.31921-10.46321,25.12282.28271,4.54232,2.14885,9.32672,5.64185,14.41047a38.60511,38.60511,0,0,1-.98921-12.27206c.89215-10.72222,6.126-19.22873,11.18833-27.45535C233.91489,148.58306,239.34964,139.74869,235.29573,128.12867Z" transform="translate(0.37847 -0.10808)"/></svg>